<mxfile host="app.diagrams.net" modified="2023-03-22T10:04:30.557Z" agent="5.0 (X11; Linux x86_64) AppleWebKit/537.36 (KHTML, like Gecko) Chrome/105.0.0.0 Safari/537.36" etag="eOz37lafBtz9hdsnNkjt" version="20.8.20" type="github">
  <diagram name="Page-1" id="NcI3C2nKvygBPAJpbu57">
    <mxGraphModel dx="2212" dy="834" grid="1" gridSize="10" guides="1" tooltips="1" connect="1" arrows="1" fold="1" page="1" pageScale="1" pageWidth="850" pageHeight="1100" math="0" shadow="0">
      <root>
        <mxCell id="0" />
        <mxCell id="1" parent="0" />
        <mxCell id="D0xbSum_9KOVMymJP6YL-1" value="DFS client（DN3）" style="rounded=1;whiteSpace=wrap;html=1;fillColor=#fff2cc;strokeColor=#d6b656;" vertex="1" parent="1">
          <mxGeometry x="110" y="410" width="120" height="60" as="geometry" />
        </mxCell>
        <mxCell id="D0xbSum_9KOVMymJP6YL-2" value="controller" style="rounded=0;whiteSpace=wrap;html=1;fillColor=#dae8fc;strokeColor=#6c8ebf;" vertex="1" parent="1">
          <mxGeometry x="560" y="200" width="120" height="90" as="geometry" />
        </mxCell>
        <mxCell id="D0xbSum_9KOVMymJP6YL-5" style="edgeStyle=orthogonalEdgeStyle;rounded=0;orthogonalLoop=1;jettySize=auto;html=1;exitX=1;exitY=0.75;exitDx=0;exitDy=0;" edge="1" parent="1" source="D0xbSum_9KOVMymJP6YL-3">
          <mxGeometry relative="1" as="geometry">
            <mxPoint x="570" y="670" as="targetPoint" />
          </mxGeometry>
        </mxCell>
        <mxCell id="D0xbSum_9KOVMymJP6YL-3" value="DN1" style="rounded=1;whiteSpace=wrap;html=1;fillColor=#d5e8d4;strokeColor=#82b366;" vertex="1" parent="1">
          <mxGeometry x="460" y="630" width="120" height="60" as="geometry" />
        </mxCell>
        <mxCell id="D0xbSum_9KOVMymJP6YL-4" value="DN2" style="rounded=1;whiteSpace=wrap;html=1;fillColor=#d5e8d4;strokeColor=#82b366;" vertex="1" parent="1">
          <mxGeometry x="640" y="630" width="120" height="60" as="geometry" />
        </mxCell>
        <mxCell id="D0xbSum_9KOVMymJP6YL-7" value="Actor" style="shape=umlActor;verticalLabelPosition=bottom;verticalAlign=top;html=1;outlineConnect=0;" vertex="1" parent="1">
          <mxGeometry x="-20" y="190" width="20" height="40" as="geometry" />
        </mxCell>
        <mxCell id="D0xbSum_9KOVMymJP6YL-13" value="" style="endArrow=classic;html=1;rounded=0;entryX=0.442;entryY=0.033;entryDx=0;entryDy=0;entryPerimeter=0;exitX=1;exitY=1;exitDx=0;exitDy=0;exitPerimeter=0;" edge="1" parent="1" source="D0xbSum_9KOVMymJP6YL-7" target="D0xbSum_9KOVMymJP6YL-1">
          <mxGeometry width="50" height="50" relative="1" as="geometry">
            <mxPoint x="30" y="250" as="sourcePoint" />
            <mxPoint x="450" y="400" as="targetPoint" />
          </mxGeometry>
        </mxCell>
        <mxCell id="D0xbSum_9KOVMymJP6YL-14" value="1、收到请求" style="text;html=1;strokeColor=none;fillColor=none;align=center;verticalAlign=middle;whiteSpace=wrap;rounded=0;" vertex="1" parent="1">
          <mxGeometry x="50" y="310" width="70" height="30" as="geometry" />
        </mxCell>
        <mxCell id="D0xbSum_9KOVMymJP6YL-16" value="2、从数据库缓存或者加载数据库domain信息" style="text;html=1;strokeColor=none;fillColor=none;align=center;verticalAlign=middle;whiteSpace=wrap;rounded=0;" vertex="1" parent="1">
          <mxGeometry x="100" y="540" width="140" height="40" as="geometry" />
        </mxCell>
        <mxCell id="D0xbSum_9KOVMymJP6YL-19" value="3、根据t的信息，增加不存在的分区，多线程此时可能存在冲突，系统会重试" style="text;html=1;strokeColor=none;fillColor=none;align=center;verticalAlign=middle;whiteSpace=wrap;rounded=0;" vertex="1" parent="1">
          <mxGeometry x="110" y="630" width="140" height="60" as="geometry" />
        </mxCell>
        <mxCell id="D0xbSum_9KOVMymJP6YL-20" value="" style="endArrow=classic;html=1;rounded=0;exitX=0.2;exitY=1.05;exitDx=0;exitDy=0;exitPerimeter=0;" edge="1" parent="1" source="D0xbSum_9KOVMymJP6YL-1">
          <mxGeometry width="50" height="50" relative="1" as="geometry">
            <mxPoint x="135" y="480" as="sourcePoint" />
            <mxPoint x="134" y="540" as="targetPoint" />
          </mxGeometry>
        </mxCell>
        <mxCell id="D0xbSum_9KOVMymJP6YL-23" value="4、根据分区信息，将t分成10个组，每组包含对应分区的数据" style="text;html=1;strokeColor=none;fillColor=none;align=center;verticalAlign=middle;whiteSpace=wrap;rounded=0;" vertex="1" parent="1">
          <mxGeometry x="-80" y="380" width="140" height="60" as="geometry" />
        </mxCell>
        <mxCell id="D0xbSum_9KOVMymJP6YL-25" value="5、将10个分区的path发给controller去打开事务" style="text;html=1;strokeColor=none;fillColor=none;align=center;verticalAlign=middle;whiteSpace=wrap;rounded=0;" vertex="1" parent="1">
          <mxGeometry x="340" y="270" width="140" height="60" as="geometry" />
        </mxCell>
        <mxCell id="D0xbSum_9KOVMymJP6YL-26" value="" style="endArrow=classic;html=1;rounded=0;exitX=0.75;exitY=0;exitDx=0;exitDy=0;entryX=0;entryY=0.5;entryDx=0;entryDy=0;" edge="1" parent="1" source="D0xbSum_9KOVMymJP6YL-1" target="D0xbSum_9KOVMymJP6YL-2">
          <mxGeometry width="50" height="50" relative="1" as="geometry">
            <mxPoint x="250" y="390" as="sourcePoint" />
            <mxPoint x="290" y="450" as="targetPoint" />
          </mxGeometry>
        </mxCell>
        <mxCell id="D0xbSum_9KOVMymJP6YL-27" value="6、controller创建事务，新建不存在的分区" style="text;html=1;strokeColor=none;fillColor=none;align=center;verticalAlign=middle;whiteSpace=wrap;rounded=0;" vertex="1" parent="1">
          <mxGeometry x="690" y="215" width="140" height="60" as="geometry" />
        </mxCell>
        <mxCell id="D0xbSum_9KOVMymJP6YL-30" value="" style="endArrow=classic;html=1;rounded=0;entryX=0.642;entryY=-0.067;entryDx=0;entryDy=0;exitX=0;exitY=0.25;exitDx=0;exitDy=0;entryPerimeter=0;" edge="1" parent="1" source="D0xbSum_9KOVMymJP6YL-2" target="D0xbSum_9KOVMymJP6YL-1">
          <mxGeometry width="50" height="50" relative="1" as="geometry">
            <mxPoint x="400" y="420" as="sourcePoint" />
            <mxPoint x="450" y="370" as="targetPoint" />
            <Array as="points">
              <mxPoint x="330" y="250" />
            </Array>
          </mxGeometry>
        </mxCell>
        <mxCell id="D0xbSum_9KOVMymJP6YL-31" value="7、controller将事务信息以及分区信息返回" style="text;html=1;strokeColor=none;fillColor=none;align=center;verticalAlign=middle;whiteSpace=wrap;rounded=0;" vertex="1" parent="1">
          <mxGeometry x="240" y="200" width="140" height="60" as="geometry" />
        </mxCell>
        <mxCell id="D0xbSum_9KOVMymJP6YL-32" value="8、client根据返回的tid创建事务，并且将分区数据发送给相关的datanode" style="text;html=1;strokeColor=none;fillColor=none;align=center;verticalAlign=middle;whiteSpace=wrap;rounded=0;" vertex="1" parent="1">
          <mxGeometry x="285" y="510" width="140" height="60" as="geometry" />
        </mxCell>
        <mxCell id="D0xbSum_9KOVMymJP6YL-35" value="9、根据写入请求，创建本地分区，写数据到本节点的cacheEngine，redolog" style="text;html=1;strokeColor=none;fillColor=none;align=center;verticalAlign=middle;whiteSpace=wrap;rounded=0;" vertex="1" parent="1">
          <mxGeometry x="450" y="720" width="140" height="60" as="geometry" />
        </mxCell>
        <mxCell id="D0xbSum_9KOVMymJP6YL-37" value="9、根据写入请求，创建本地分区，写数据到本节点的cacheEngine，redolog" style="text;html=1;strokeColor=none;fillColor=none;align=center;verticalAlign=middle;whiteSpace=wrap;rounded=0;" vertex="1" parent="1">
          <mxGeometry x="640" y="720" width="140" height="60" as="geometry" />
        </mxCell>
        <mxCell id="D0xbSum_9KOVMymJP6YL-40" value="9、根据写入请求，创建本地分区，写数据到本节点的cacheEngine，redolog" style="text;html=1;strokeColor=none;fillColor=none;align=center;verticalAlign=middle;whiteSpace=wrap;rounded=0;" vertex="1" parent="1">
          <mxGeometry x="120" y="720" width="140" height="60" as="geometry" />
        </mxCell>
        <mxCell id="D0xbSum_9KOVMymJP6YL-41" value="" style="endArrow=classic;html=1;rounded=0;exitX=0.5;exitY=1;exitDx=0;exitDy=0;entryX=0.436;entryY=0;entryDx=0;entryDy=0;entryPerimeter=0;" edge="1" parent="1" source="D0xbSum_9KOVMymJP6YL-1" target="D0xbSum_9KOVMymJP6YL-19">
          <mxGeometry width="50" height="50" relative="1" as="geometry">
            <mxPoint x="400" y="520" as="sourcePoint" />
            <mxPoint x="450" y="470" as="targetPoint" />
          </mxGeometry>
        </mxCell>
        <mxCell id="D0xbSum_9KOVMymJP6YL-42" value="" style="endArrow=classic;html=1;rounded=0;exitX=0.817;exitY=1.05;exitDx=0;exitDy=0;exitPerimeter=0;entryX=0.636;entryY=-0.067;entryDx=0;entryDy=0;entryPerimeter=0;" edge="1" parent="1" source="D0xbSum_9KOVMymJP6YL-1" target="D0xbSum_9KOVMymJP6YL-40">
          <mxGeometry width="50" height="50" relative="1" as="geometry">
            <mxPoint x="400" y="520" as="sourcePoint" />
            <mxPoint x="450" y="470" as="targetPoint" />
          </mxGeometry>
        </mxCell>
        <mxCell id="D0xbSum_9KOVMymJP6YL-43" value="10、client收到所有节点的写入完成信息，准备提交任务" style="text;html=1;strokeColor=none;fillColor=none;align=center;verticalAlign=middle;whiteSpace=wrap;rounded=0;" vertex="1" parent="1">
          <mxGeometry x="-90" y="470" width="140" height="60" as="geometry" />
        </mxCell>
        <mxCell id="D0xbSum_9KOVMymJP6YL-45" value="11、client向controller申请全局commit id" style="text;html=1;strokeColor=none;fillColor=none;align=center;verticalAlign=middle;whiteSpace=wrap;rounded=0;" vertex="1" parent="1">
          <mxGeometry x="320" y="350" width="140" height="60" as="geometry" />
        </mxCell>
        <mxCell id="D0xbSum_9KOVMymJP6YL-46" value="" style="endArrow=classic;html=1;rounded=0;entryX=0;entryY=1;entryDx=0;entryDy=0;exitX=1;exitY=0.25;exitDx=0;exitDy=0;" edge="1" parent="1" source="D0xbSum_9KOVMymJP6YL-1" target="D0xbSum_9KOVMymJP6YL-2">
          <mxGeometry width="50" height="50" relative="1" as="geometry">
            <mxPoint x="400" y="530" as="sourcePoint" />
            <mxPoint x="450" y="480" as="targetPoint" />
          </mxGeometry>
        </mxCell>
        <mxCell id="D0xbSum_9KOVMymJP6YL-56" value="12、开始事务提交的第一阶段，commit" style="text;html=1;strokeColor=none;fillColor=none;align=center;verticalAlign=middle;whiteSpace=wrap;rounded=0;" vertex="1" parent="1">
          <mxGeometry x="510" y="380" width="140" height="60" as="geometry" />
        </mxCell>
        <mxCell id="D0xbSum_9KOVMymJP6YL-58" value="13 、开始事务提交的第二阶段，close" style="text;html=1;strokeColor=none;fillColor=none;align=center;verticalAlign=middle;whiteSpace=wrap;rounded=0;" vertex="1" parent="1">
          <mxGeometry x="510" y="460" width="140" height="60" as="geometry" />
        </mxCell>
        <mxCell id="D0xbSum_9KOVMymJP6YL-62" value="" style="endArrow=classic;html=1;rounded=0;entryX=0.5;entryY=0;entryDx=0;entryDy=0;exitX=0.5;exitY=1;exitDx=0;exitDy=0;" edge="1" parent="1" source="D0xbSum_9KOVMymJP6YL-3" target="D0xbSum_9KOVMymJP6YL-35">
          <mxGeometry width="50" height="50" relative="1" as="geometry">
            <mxPoint x="400" y="530" as="sourcePoint" />
            <mxPoint x="450" y="480" as="targetPoint" />
          </mxGeometry>
        </mxCell>
        <mxCell id="D0xbSum_9KOVMymJP6YL-65" value="" style="endArrow=classic;html=1;rounded=0;entryX=0.436;entryY=-0.033;entryDx=0;entryDy=0;exitX=0.5;exitY=1;exitDx=0;exitDy=0;entryPerimeter=0;" edge="1" parent="1" source="D0xbSum_9KOVMymJP6YL-4" target="D0xbSum_9KOVMymJP6YL-37">
          <mxGeometry width="50" height="50" relative="1" as="geometry">
            <mxPoint x="400" y="530" as="sourcePoint" />
            <mxPoint x="450" y="480" as="targetPoint" />
          </mxGeometry>
        </mxCell>
        <mxCell id="D0xbSum_9KOVMymJP6YL-67" value="" style="endArrow=classic;html=1;rounded=0;exitX=1;exitY=0.75;exitDx=0;exitDy=0;entryX=0.442;entryY=-0.017;entryDx=0;entryDy=0;entryPerimeter=0;" edge="1" parent="1" source="D0xbSum_9KOVMymJP6YL-1" target="D0xbSum_9KOVMymJP6YL-3">
          <mxGeometry width="50" height="50" relative="1" as="geometry">
            <mxPoint x="400" y="480" as="sourcePoint" />
            <mxPoint x="450" y="430" as="targetPoint" />
          </mxGeometry>
        </mxCell>
        <mxCell id="D0xbSum_9KOVMymJP6YL-69" value="" style="endArrow=classic;html=1;rounded=0;exitX=1;exitY=0.5;exitDx=0;exitDy=0;entryX=0.5;entryY=0;entryDx=0;entryDy=0;" edge="1" parent="1" source="D0xbSum_9KOVMymJP6YL-1" target="D0xbSum_9KOVMymJP6YL-4">
          <mxGeometry width="50" height="50" relative="1" as="geometry">
            <mxPoint x="400" y="480" as="sourcePoint" />
            <mxPoint x="450" y="430" as="targetPoint" />
          </mxGeometry>
        </mxCell>
        <mxCell id="D0xbSum_9KOVMymJP6YL-70" value="" style="endArrow=classic;html=1;rounded=0;entryX=0.5;entryY=1;entryDx=0;entryDy=0;exitX=1.025;exitY=0.4;exitDx=0;exitDy=0;exitPerimeter=0;" edge="1" parent="1" source="D0xbSum_9KOVMymJP6YL-1" target="D0xbSum_9KOVMymJP6YL-2">
          <mxGeometry width="50" height="50" relative="1" as="geometry">
            <mxPoint x="400" y="480" as="sourcePoint" />
            <mxPoint x="450" y="430" as="targetPoint" />
            <Array as="points">
              <mxPoint x="480" y="434" />
            </Array>
          </mxGeometry>
        </mxCell>
        <mxCell id="D0xbSum_9KOVMymJP6YL-71" value="cid 1" style="rounded=1;whiteSpace=wrap;html=1;fillColor=#d5e8d4;strokeColor=#82b366;" vertex="1" parent="1">
          <mxGeometry x="-10" y="1030" width="130" height="30" as="geometry" />
        </mxCell>
        <mxCell id="D0xbSum_9KOVMymJP6YL-72" value="cid 4" style="rounded=1;whiteSpace=wrap;html=1;fillColor=#d5e8d4;strokeColor=#82b366;" vertex="1" parent="1">
          <mxGeometry x="120" y="1030" width="130" height="30" as="geometry" />
        </mxCell>
        <mxCell id="D0xbSum_9KOVMymJP6YL-73" value="cid 5" style="rounded=1;whiteSpace=wrap;html=1;fillColor=#d5e8d4;strokeColor=#82b366;" vertex="1" parent="1">
          <mxGeometry x="250" y="1030" width="130" height="30" as="geometry" />
        </mxCell>
        <mxCell id="D0xbSum_9KOVMymJP6YL-74" value="in transaction（cid 8）" style="rounded=1;whiteSpace=wrap;html=1;fillColor=#f8cecc;strokeColor=#b85450;" vertex="1" parent="1">
          <mxGeometry x="380" y="1030" width="130" height="30" as="geometry" />
        </mxCell>
        <mxCell id="D0xbSum_9KOVMymJP6YL-75" value="cid 1" style="rounded=1;whiteSpace=wrap;html=1;fillColor=#d5e8d4;strokeColor=#82b366;" vertex="1" parent="1">
          <mxGeometry x="-10" y="1090" width="130" height="30" as="geometry" />
        </mxCell>
        <mxCell id="D0xbSum_9KOVMymJP6YL-76" value="cid 3" style="rounded=1;whiteSpace=wrap;html=1;fillColor=#d5e8d4;strokeColor=#82b366;" vertex="1" parent="1">
          <mxGeometry x="120" y="1090" width="130" height="30" as="geometry" />
        </mxCell>
        <mxCell id="D0xbSum_9KOVMymJP6YL-77" value="cid 6" style="rounded=1;whiteSpace=wrap;html=1;fillColor=#d5e8d4;strokeColor=#82b366;" vertex="1" parent="1">
          <mxGeometry x="250" y="1090" width="130" height="30" as="geometry" />
        </mxCell>
        <mxCell id="D0xbSum_9KOVMymJP6YL-78" value="no transaction" style="rounded=1;whiteSpace=wrap;html=1;fillColor=#fff2cc;strokeColor=#d6b656;" vertex="1" parent="1">
          <mxGeometry x="380" y="1090" width="130" height="30" as="geometry" />
        </mxCell>
        <mxCell id="D0xbSum_9KOVMymJP6YL-83" value="cid 2" style="rounded=1;whiteSpace=wrap;html=1;fillColor=#d5e8d4;strokeColor=#82b366;" vertex="1" parent="1">
          <mxGeometry x="-10" y="1150" width="130" height="30" as="geometry" />
        </mxCell>
        <mxCell id="D0xbSum_9KOVMymJP6YL-84" value="cid 3" style="rounded=1;whiteSpace=wrap;html=1;fillColor=#d5e8d4;strokeColor=#82b366;" vertex="1" parent="1">
          <mxGeometry x="120" y="1150" width="130" height="30" as="geometry" />
        </mxCell>
        <mxCell id="D0xbSum_9KOVMymJP6YL-85" value="cid 7" style="rounded=1;whiteSpace=wrap;html=1;fillColor=#d5e8d4;strokeColor=#82b366;" vertex="1" parent="1">
          <mxGeometry x="250" y="1150" width="130" height="30" as="geometry" />
        </mxCell>
        <mxCell id="D0xbSum_9KOVMymJP6YL-87" value="&lt;font style=&quot;font-size: 18px;&quot;&gt;分区1&lt;/font&gt;" style="text;html=1;strokeColor=none;fillColor=none;align=center;verticalAlign=middle;whiteSpace=wrap;rounded=0;" vertex="1" parent="1">
          <mxGeometry x="-90" y="1030" width="60" height="30" as="geometry" />
        </mxCell>
        <mxCell id="D0xbSum_9KOVMymJP6YL-88" value="&lt;font style=&quot;font-size: 18px;&quot;&gt;分区2&lt;/font&gt;" style="text;html=1;strokeColor=none;fillColor=none;align=center;verticalAlign=middle;whiteSpace=wrap;rounded=0;" vertex="1" parent="1">
          <mxGeometry x="-90" y="1090" width="60" height="30" as="geometry" />
        </mxCell>
        <mxCell id="D0xbSum_9KOVMymJP6YL-89" value="&lt;font style=&quot;font-size: 18px;&quot;&gt;分区3&lt;/font&gt;" style="text;html=1;strokeColor=none;fillColor=none;align=center;verticalAlign=middle;whiteSpace=wrap;rounded=0;" vertex="1" parent="1">
          <mxGeometry x="-90" y="1150" width="60" height="30" as="geometry" />
        </mxCell>
        <mxCell id="D0xbSum_9KOVMymJP6YL-90" value="cid 8" style="rounded=1;whiteSpace=wrap;html=1;fillColor=#d5e8d4;strokeColor=#82b366;" vertex="1" parent="1">
          <mxGeometry x="380" y="1150" width="130" height="30" as="geometry" />
        </mxCell>
        <mxCell id="D0xbSum_9KOVMymJP6YL-91" value="cid 1&amp;nbsp; sid 1" style="rounded=1;whiteSpace=wrap;html=1;fillColor=#d5e8d4;strokeColor=#82b366;" vertex="1" parent="1">
          <mxGeometry x="-10" y="1290" width="130" height="30" as="geometry" />
        </mxCell>
        <mxCell id="D0xbSum_9KOVMymJP6YL-92" value="cid 4 sid 3" style="rounded=1;whiteSpace=wrap;html=1;fillColor=#d5e8d4;strokeColor=#82b366;" vertex="1" parent="1">
          <mxGeometry x="120" y="1290" width="130" height="30" as="geometry" />
        </mxCell>
        <mxCell id="D0xbSum_9KOVMymJP6YL-93" value="cid 5 sid 4" style="rounded=1;whiteSpace=wrap;html=1;fillColor=#d5e8d4;strokeColor=#82b366;" vertex="1" parent="1">
          <mxGeometry x="250" y="1290" width="130" height="30" as="geometry" />
        </mxCell>
        <mxCell id="D0xbSum_9KOVMymJP6YL-94" value="in transaction（cid 8）" style="rounded=1;whiteSpace=wrap;html=1;fillColor=#f8cecc;strokeColor=#b85450;" vertex="1" parent="1">
          <mxGeometry x="380" y="1290" width="130" height="30" as="geometry" />
        </mxCell>
        <mxCell id="D0xbSum_9KOVMymJP6YL-95" value="cid 1 sid 1" style="rounded=1;whiteSpace=wrap;html=1;fillColor=#d5e8d4;strokeColor=#82b366;" vertex="1" parent="1">
          <mxGeometry x="-10" y="1350" width="130" height="30" as="geometry" />
        </mxCell>
        <mxCell id="D0xbSum_9KOVMymJP6YL-96" value="cid 6 sid 5" style="rounded=1;whiteSpace=wrap;html=1;fillColor=#d5e8d4;strokeColor=#82b366;" vertex="1" parent="1">
          <mxGeometry x="120" y="1350" width="130" height="30" as="geometry" />
        </mxCell>
        <mxCell id="D0xbSum_9KOVMymJP6YL-97" value="cid 7 sid 6" style="rounded=1;whiteSpace=wrap;html=1;fillColor=#d5e8d4;strokeColor=#82b366;" vertex="1" parent="1">
          <mxGeometry x="250" y="1350" width="130" height="30" as="geometry" />
        </mxCell>
        <mxCell id="D0xbSum_9KOVMymJP6YL-98" value="no transaction" style="rounded=1;whiteSpace=wrap;html=1;fillColor=#fff2cc;strokeColor=#d6b656;" vertex="1" parent="1">
          <mxGeometry x="380" y="1350" width="130" height="30" as="geometry" />
        </mxCell>
        <mxCell id="D0xbSum_9KOVMymJP6YL-99" value="cid 2 sid 2" style="rounded=1;whiteSpace=wrap;html=1;fillColor=#d5e8d4;strokeColor=#82b366;" vertex="1" parent="1">
          <mxGeometry x="-10" y="1410" width="130" height="30" as="geometry" />
        </mxCell>
        <mxCell id="D0xbSum_9KOVMymJP6YL-100" value="cid 3（commit，由于各种原因，比如clieng挂了，导致一直没有close）" style="rounded=1;whiteSpace=wrap;html=1;fillColor=#fff2cc;strokeColor=#d6b656;" vertex="1" parent="1">
          <mxGeometry x="120" y="1410" width="250" height="30" as="geometry" />
        </mxCell>
        <mxCell id="D0xbSum_9KOVMymJP6YL-102" value="&lt;font style=&quot;font-size: 18px;&quot;&gt;分区1&lt;/font&gt;" style="text;html=1;strokeColor=none;fillColor=none;align=center;verticalAlign=middle;whiteSpace=wrap;rounded=0;" vertex="1" parent="1">
          <mxGeometry x="-90" y="1290" width="60" height="30" as="geometry" />
        </mxCell>
        <mxCell id="D0xbSum_9KOVMymJP6YL-103" value="&lt;font style=&quot;font-size: 18px;&quot;&gt;分区2&lt;/font&gt;" style="text;html=1;strokeColor=none;fillColor=none;align=center;verticalAlign=middle;whiteSpace=wrap;rounded=0;" vertex="1" parent="1">
          <mxGeometry x="-90" y="1350" width="60" height="30" as="geometry" />
        </mxCell>
        <mxCell id="D0xbSum_9KOVMymJP6YL-104" value="&lt;font style=&quot;font-size: 18px;&quot;&gt;分区3&lt;/font&gt;" style="text;html=1;strokeColor=none;fillColor=none;align=center;verticalAlign=middle;whiteSpace=wrap;rounded=0;" vertex="1" parent="1">
          <mxGeometry x="-90" y="1410" width="60" height="30" as="geometry" />
        </mxCell>
        <mxCell id="D0xbSum_9KOVMymJP6YL-107" value="tid 1" style="rounded=1;whiteSpace=wrap;html=1;fillColor=#d5e8d4;strokeColor=#82b366;" vertex="1" parent="1">
          <mxGeometry x="-10" y="1575" width="130" height="30" as="geometry" />
        </mxCell>
        <mxCell id="D0xbSum_9KOVMymJP6YL-108" value="tid 2" style="rounded=1;whiteSpace=wrap;html=1;fillColor=#d5e8d4;strokeColor=#82b366;" vertex="1" parent="1">
          <mxGeometry x="120" y="1575" width="130" height="30" as="geometry" />
        </mxCell>
        <mxCell id="D0xbSum_9KOVMymJP6YL-109" value="tid 3" style="rounded=1;whiteSpace=wrap;html=1;fillColor=#d5e8d4;strokeColor=#82b366;" vertex="1" parent="1">
          <mxGeometry x="250" y="1575" width="130" height="30" as="geometry" />
        </mxCell>
        <mxCell id="D0xbSum_9KOVMymJP6YL-110" value="tid 4（数据写入）" style="rounded=1;whiteSpace=wrap;html=1;fillColor=#fff2cc;strokeColor=#d6b656;" vertex="1" parent="1">
          <mxGeometry x="380" y="1575" width="130" height="30" as="geometry" />
        </mxCell>
        <mxCell id="D0xbSum_9KOVMymJP6YL-125" value="" style="edgeStyle=orthogonalEdgeStyle;rounded=0;orthogonalLoop=1;jettySize=auto;html=1;fontSize=18;" edge="1" parent="1" target="D0xbSum_9KOVMymJP6YL-108">
          <mxGeometry relative="1" as="geometry">
            <mxPoint x="185" y="1635" as="sourcePoint" />
          </mxGeometry>
        </mxCell>
        <mxCell id="D0xbSum_9KOVMymJP6YL-118" value="&lt;font style=&quot;font-size: 18px;&quot;&gt;分区1&lt;/font&gt;" style="text;html=1;strokeColor=none;fillColor=none;align=center;verticalAlign=middle;whiteSpace=wrap;rounded=0;" vertex="1" parent="1">
          <mxGeometry x="-90" y="1575" width="60" height="30" as="geometry" />
        </mxCell>
        <mxCell id="D0xbSum_9KOVMymJP6YL-119" value="&lt;font style=&quot;font-size: 18px;&quot;&gt;分区2&lt;/font&gt;" style="text;html=1;strokeColor=none;fillColor=none;align=center;verticalAlign=middle;whiteSpace=wrap;rounded=0;" vertex="1" parent="1">
          <mxGeometry x="-90" y="1635" width="60" height="30" as="geometry" />
        </mxCell>
        <mxCell id="D0xbSum_9KOVMymJP6YL-120" value="&lt;font style=&quot;font-size: 18px;&quot;&gt;分区3&lt;/font&gt;" style="text;html=1;strokeColor=none;fillColor=none;align=center;verticalAlign=middle;whiteSpace=wrap;rounded=0;" vertex="1" parent="1">
          <mxGeometry x="-90" y="1695" width="60" height="30" as="geometry" />
        </mxCell>
        <mxCell id="D0xbSum_9KOVMymJP6YL-127" value="tid 1" style="rounded=1;whiteSpace=wrap;html=1;fillColor=#d5e8d4;strokeColor=#82b366;" vertex="1" parent="1">
          <mxGeometry x="-10" y="1630" width="130" height="30" as="geometry" />
        </mxCell>
        <mxCell id="D0xbSum_9KOVMymJP6YL-136" value="" style="edgeStyle=orthogonalEdgeStyle;rounded=0;orthogonalLoop=1;jettySize=auto;html=1;fontSize=18;" edge="1" parent="1" source="D0xbSum_9KOVMymJP6YL-128" target="D0xbSum_9KOVMymJP6YL-108">
          <mxGeometry relative="1" as="geometry" />
        </mxCell>
        <mxCell id="D0xbSum_9KOVMymJP6YL-128" value="tid 2" style="rounded=1;whiteSpace=wrap;html=1;fillColor=#d5e8d4;strokeColor=#82b366;" vertex="1" parent="1">
          <mxGeometry x="120" y="1630" width="130" height="30" as="geometry" />
        </mxCell>
        <mxCell id="D0xbSum_9KOVMymJP6YL-129" value="tid 3" style="rounded=1;whiteSpace=wrap;html=1;fillColor=#d5e8d4;strokeColor=#82b366;" vertex="1" parent="1">
          <mxGeometry x="250" y="1630" width="130" height="30" as="geometry" />
        </mxCell>
        <mxCell id="D0xbSum_9KOVMymJP6YL-131" value="tid 1" style="rounded=1;whiteSpace=wrap;html=1;fillColor=#d5e8d4;strokeColor=#82b366;" vertex="1" parent="1">
          <mxGeometry x="-10" y="1690" width="130" height="30" as="geometry" />
        </mxCell>
        <mxCell id="D0xbSum_9KOVMymJP6YL-132" value="tid 2" style="rounded=1;whiteSpace=wrap;html=1;fillColor=#d5e8d4;strokeColor=#82b366;" vertex="1" parent="1">
          <mxGeometry x="120" y="1690" width="130" height="30" as="geometry" />
        </mxCell>
        <mxCell id="D0xbSum_9KOVMymJP6YL-133" value="tid 3" style="rounded=1;whiteSpace=wrap;html=1;fillColor=#d5e8d4;strokeColor=#82b366;" vertex="1" parent="1">
          <mxGeometry x="250" y="1690" width="130" height="30" as="geometry" />
        </mxCell>
        <mxCell id="D0xbSum_9KOVMymJP6YL-137" value="tid 4（写入过程中）" style="rounded=1;whiteSpace=wrap;html=1;fillColor=#fff2cc;strokeColor=#d6b656;" vertex="1" parent="1">
          <mxGeometry x="380" y="1630" width="130" height="30" as="geometry" />
        </mxCell>
        <mxCell id="D0xbSum_9KOVMymJP6YL-138" value="tid 4（没开始写入）" style="rounded=1;whiteSpace=wrap;html=1;fillColor=#fff2cc;strokeColor=#d6b656;" vertex="1" parent="1">
          <mxGeometry x="380" y="1690" width="130" height="30" as="geometry" />
        </mxCell>
      </root>
    </mxGraphModel>
  </diagram>
</mxfile>
